<?xml version="1.0" encoding="UTF-8" standalone="no"?>
<!-- Created with Inkscape (http://www.inkscape.org/) -->

<svg
   xmlns:dc="http://purl.org/dc/elements/1.1/"
   xmlns:cc="http://creativecommons.org/ns#"
   xmlns:rdf="http://www.w3.org/1999/02/22-rdf-syntax-ns#"
   xmlns:svg="http://www.w3.org/2000/svg"
   xmlns="http://www.w3.org/2000/svg"
   xmlns:sodipodi="http://sodipodi.sourceforge.net/DTD/sodipodi-0.dtd"
   xmlns:inkscape="http://www.inkscape.org/namespaces/inkscape"
   width="300mm"
   height="300mm"
   viewBox="0 0 1062.9921 1062.9921"
   id="svg4503"
   version="1.1"
   inkscape:version="0.91 r13725"
   sodipodi:docname="shaker.svg">
  <defs
     id="defs4505" />
  <sodipodi:namedview
     id="base"
     pagecolor="#ffffff"
     bordercolor="#666666"
     borderopacity="1.0"
     inkscape:pageopacity="0.0"
     inkscape:pageshadow="2"
     inkscape:zoom="0.35"
     inkscape:cx="-112.14285"
     inkscape:cy="520"
     inkscape:document-units="px"
     inkscape:current-layer="layer2"
     showgrid="false"
     showborder="true"
     inkscape:window-width="2194"
     inkscape:window-height="1171"
     inkscape:window-x="-8"
     inkscape:window-y="32"
     inkscape:window-maximized="1" />
  <metadata
     id="metadata4508">
    <rdf:RDF>
      <cc:Work
         rdf:about="">
        <dc:format>image/svg+xml</dc:format>
        <dc:type
           rdf:resource="http://purl.org/dc/dcmitype/StillImage" />
        <dc:title />
      </cc:Work>
    </rdf:RDF>
  </metadata>
  <g
     inkscape:groupmode="layer"
     id="layer2"
     inkscape:label="Layer 2" />
  <g
     inkscape:label="Layer 1"
     inkscape:groupmode="layer"
     id="layer1"
     transform="translate(0,10.629921)">
    <path
       inkscape:connector-curvature="0"
       id="path4150"
       style="fill:#faffff;fill-opacity:0.27450982;fill-rule:nonzero;stroke:none"
       d="m 133.73325,799.25354 0.25782,0.0109 c 0.82258,0.0331 1.65134,0.0441 2.45519,0.0441 15.00519,0 28.74489,-5.44096 39.33433,-14.47946 1.14279,29.27409 23.493,54.25492 53.41582,57.75139 2.34111,0.27971 4.74521,0.42176 7.13986,0.42176 13.51439,0 26.08089,-4.46574 36.22896,-12.04739 5.55878,11.33976 14.60856,21.02051 26.4431,27.1334 l 277.73418,143.54605 c 8.5628,4.4419 18.19001,6.7908 27.8529,6.7908 18.80253,0 36.82605,-8.93154 48.20744,-23.88672 l 268.3132,-352.55591 c 0.49333,-0.64859 0.97565,-1.31415 1.44498,-2.00393 0.86773,-1.2428 1.65905,-2.45585 2.3964,-3.68083 0.33256,-0.53517 0.65412,-1.07035 0.9393,-1.58174 0.5407,-0.96352 1.03512,-1.93852 1.49851,-2.91967 0.32153,-0.62989 0.62987,-1.27848 0.97565,-2.05152 0.64199,-1.44497 1.2428,-2.95536 1.8196,-4.5906 0.11331,-0.31494 0.41072,-1.18333 0.45148,-1.32012 1.33793,-4.1149 2.22989,-8.40819 2.65805,-12.74908 0.0659,-0.70803 0.11905,-1.41522 0.15408,-2.14663 0.0881,-1.42119 0.1311,-2.76509 0.12453,-4.19222 0,-0.68934 -0.0331,-1.3855 -0.055,-2.09906 l -0.0219,-0.36891 c -0.066,-1.29036 -0.16093,-2.56885 -0.28522,-3.71649 -0.11002,-0.9338 -0.23236,-1.86717 -0.35678,-2.68183 -0.15409,-0.97565 -0.32706,-1.93852 -0.51095,-2.8186 -0.14861,-0.80276 -0.32156,-1.63524 -0.55942,-2.59857 L 886.66216,399.99548 929.04808,296.7006 c 11.89278,-28.93515 0.0331,-61.81875 -27.57938,-76.49444 L 754.79485,142.18942 c -8.73525,-4.65604 -18.5706,-7.11188 -28.44755,-7.11188 -19.64094,0 -38.11641,9.68074 -49.39673,25.53382 0.65412,-1.74229 1.23686,-3.51432 1.7304,-5.33392 4.22195,-15.61524 2.11097,-31.94405 -5.94044,-45.97159 C 664.67722,95.272349 651.63677,85.216981 636.01559,80.995041 L 520.47115,49.770524 c -5.14959,-1.385528 -10.45972,-2.087187 -15.76985,-2.087187 -20.51508,0 -38.91323,10.09103 -49.94975,26.294978 C 443.81613,58.113304 425.53096,47.689276 404.84939,47.689276 l -118.60804,0 c -33.39729,0 -60.57177,27.169089 -60.57177,60.570014 l 0,86.82334 -104.93066,72.45089 c -15.51657,10.70946 -25.274605,28.35242 -26.094553,47.15494 L 75.917956,736.03825 c -1.489038,33.36524 24.447374,61.72362 57.814394,63.2102" />
    <path
       inkscape:connector-curvature="0"
       id="path4162"
       style="fill:#ffffff;fill-opacity:0.39069769;fill-rule:nonzero;stroke:none"
       d="m 158.50892,767.86845 0.25782,0.0109 c 0.82258,0.0331 1.65374,0.0441 2.4553,0.0441 15.00749,0 28.74729,-5.43502 39.33663,-14.47949 1.14049,29.28006 23.493,54.25493 53.41582,57.75736 2.34111,0.27314 4.74523,0.41623 7.13985,0.41623 13.5144,0 26.0809,-4.45978 36.22911,-12.04739 5.55623,11.34573 14.60841,21.02051 26.44063,27.1334 l 277.73771,143.54604 c 8.56283,4.44789 18.19004,6.79673 27.84699,6.79673 18.80844,0 36.83199,-8.93149 48.21338,-23.89264 L 945.88953,600.60373 c 0.49995,-0.64859 0.98118,-1.32012 1.44498,-2.0099 0.87435,-1.23683 1.66499,-2.45585 2.40236,-3.6808 0.33254,-0.52967 0.64859,-1.07035 0.93931,-1.58174 0.54067,-0.96355 1.0285,-1.93854 1.49848,-2.91969 0.31493,-0.62987 0.6299,-1.27846 0.97565,-2.04556 0.64199,-1.44498 1.2428,-2.9613 1.8196,-4.59657 0.11331,-0.30943 0.41075,-1.18333 0.45148,-1.31415 1.33796,-4.1149 2.22991,-8.40822 2.65211,-12.75502 0.066,-0.70806 0.12453,-1.41525 0.15408,-2.14666 0.0991,-1.41525 0.13658,-2.76506 0.1311,-4.19221 0,-0.69594 -0.0331,-1.3855 -0.055,-2.09313 l -0.0219,-0.37441 c -0.066,-1.2844 -0.16065,-2.56288 -0.2918,-3.71649 -0.0991,-0.9338 -0.2258,-1.86717 -0.35679,-2.68777 -0.14861,-0.96903 -0.32155,-1.93258 -0.50545,-2.81263 -0.14861,-0.80279 -0.32706,-1.62933 -0.55939,-2.59264 l -45.1272,-180.47315 42.38592,-103.29488 c 11.89279,-28.93515 0.0331,-61.81872 -27.58534,-76.49444 L 779.56787,110.80516 c -8.73525,-4.65008 -18.56464,-7.11189 -28.44755,-7.11189 -19.63501,0 -38.11047,9.68074 -49.39077,25.53384 0.64859,-1.74231 1.23683,-3.51434 1.73041,-5.33391 4.21597,-15.61524 2.11097,-31.944049 -5.94641,-45.971615 C 689.45617,63.88808 676.41572,53.838678 660.78861,49.616738 L 545.24417,18.386255 c -5.14959,-1.385501 -10.45378,-2.087187 -15.76391,-2.087187 -20.51506,0 -38.91918,10.091057 -49.94973,26.300917 C 468.59509,26.729062 450.30992,16.305034 429.62835,16.305034 l -118.60914,0 c -33.3998,0 -60.57188,27.169089 -60.57188,60.575927 l 0,86.817399 -104.93066,72.45092 c -15.5189,10.70946 -25.2746,28.35242 -26.09455,47.16085 l -18.72641,421.34982 c -1.489041,33.35927 24.4474,61.71171 57.81261,63.20425" />
    <path
       inkscape:connector-curvature="0"
       id="path4174"
       style="fill:#ffffff;fill-opacity:1;fill-rule:nonzero;stroke:none"
       d="M 380.36898,761.42256 622.65492,886.65367 872.362,558.54933 827.85914,380.56771 677.71263,311.05433 519.65739,360.96839 380.36898,761.42256 Z m 248.99945,178.46326 c -3.6392,0 -7.32597,-0.85011 -10.73327,-2.61642 L 340.84922,793.69363 c -10.35024,-5.34579 -15.18886,-17.4824 -11.36533,-28.48323 L 479.29918,334.48908 c 2.43209,-6.97512 8.00981,-12.40417 15.05629,-14.62815 l 177.91027,-56.18156 c 5.56581,-1.76607 11.58357,-1.3736 16.88776,1.07587 l 168.53872,78.03455 c 6.4221,2.97321 11.1614,8.69365 12.87396,15.56174 l 49.94972,199.75135 c 1.71853,6.8919 0.22033,14.20002 -4.09111,19.85503 L 648.00444,930.65062 c -4.55497,5.98206 -11.52412,9.23476 -18.63601,9.23476" />
    <path
       inkscape:connector-curvature="0"
       id="path4176"
       style="fill:#ffffff;fill-opacity:1;fill-rule:nonzero;stroke:none"
       d="m 847.84499,387.44173 c -2.9613,0 -5.97019,-0.5594 -8.87798,-1.75419 -11.9582,-4.91172 -17.67268,-18.57654 -12.76096,-30.54664 l 41.89238,-102.11746 -108.2066,-57.56112 -60.4154,102.43264 c -6.57075,11.13165 -20.93132,14.83624 -32.05106,8.26549 -11.13762,-6.56484 -14.84221,-20.9135 -8.27146,-32.05109 l 71.78492,-121.72274 c 6.36858,-10.79866 20.11071,-14.65788 31.15317,-8.77688 l 146.69761,78.02861 c 10.62623,5.64907 15.23467,18.4279 10.66189,29.55359 l -49.94379,121.72871 c -3.71055,9.04446 -12.4458,14.52108 -21.66272,14.52108" />
    <path
       inkscape:connector-curvature="0"
       id="path4178"
       style="fill:#ffffff;fill-opacity:1;fill-rule:nonzero;stroke:none"
       d="m 897.78284,587.19311 c -3.8711,0 -7.79573,-0.95693 -11.40518,-2.97914 L 489.98486,362.61554 c -11.2803,-6.30913 -15.31197,-20.5686 -9.01472,-31.85486 6.30913,-11.28626 20.59238,-15.32387 31.86079,-9.01474 l 396.38684,221.59843 c 11.28626,6.31507 15.3179,20.57454 9.01471,31.85486 -4.28735,7.67681 -12.24956,11.99388 -20.44964,11.99388" />
    <path
       inkscape:connector-curvature="0"
       id="path4180"
       style="fill:#ffffff;fill-opacity:1;fill-rule:nonzero;stroke:none"
       d="m 261.11399,774.45704 c -0.90518,0 -1.82081,-0.055 -2.74547,-0.16066 -12.83584,-1.49848 -22.03614,-13.1237 -20.53588,-25.96198 l 49.93609,-427.5935 c 0.82148,-7.0227 4.77318,-13.3021 10.75405,-17.07806 L 469.04761,195.96169 507.09267,70.106205 c 3.66295,-12.118743 16.25742,-19.117679 28.51296,-15.823355 l 115.48496,31.212638 c 12.48746,3.377553 19.86694,16.227702 16.48938,28.709192 -3.37161,12.48744 -16.24557,19.85503 -28.69731,16.48936 L 545.328,105.40996 511.33242,217.86822 c -1.6293,5.38745 -5.14361,10.0078 -9.90669,13.01666 L 332.97741,337.27782 284.34008,753.76348 c -1.38917,11.92253 -11.514,20.69345 -23.22609,20.69345" />
    <path
       inkscape:connector-curvature="0"
       id="path4182"
       style="fill:#ffffff;fill-opacity:1;fill-rule:nonzero;stroke:none"
       d="m 566.96097,259.47527 c -2.36665,0 -4.77493,-0.36228 -7.14161,-1.12385 l -78.02268,-24.96299 c -12.32094,-3.93651 -19.10577,-17.11372 -15.16332,-29.42872 3.94248,-12.32092 17.15538,-19.09387 29.42873,-15.15736 l 78.02267,24.96298 c 12.32095,3.93651 19.09984,17.11372 15.15736,29.4287 -3.17538,9.94239 -12.38039,16.28124 -22.28115,16.28124" />
    <path
       inkscape:connector-curvature="0"
       id="path4184"
       style="fill:#ffffff;fill-opacity:1;fill-rule:nonzero;stroke:none"
       d="m 407.79972,365.59468 c -1.48067,0 -2.97321,-0.14314 -4.47169,-0.42835 l -96.75207,-18.73115 c -12.69852,-2.45588 -20.99552,-14.74113 -18.5337,-27.43074 2.46003,-12.69557 14.841,-20.94915 27.42356,-18.53494 l 96.75207,18.73118 c 12.70151,2.45585 20.99673,14.73516 18.53491,27.42477 -2.15853,11.19112 -11.9701,18.96901 -22.95308,18.96901" />
    <path
       inkscape:connector-curvature="0"
       id="path4186"
       style="fill:#ffffff;fill-opacity:1;fill-rule:nonzero;stroke:none"
       d="m 161.22409,730.76293 c -0.34575,0 -0.70365,-0.005 -1.05931,-0.0219 -12.91261,-0.57702 -22.91677,-11.50628 -22.33888,-24.42184 l 18.72642,-421.35576 c 0.31936,-7.32003 4.05126,-14.06323 10.07685,-18.21976 l 120.9835,-83.53501 0,-106.321551 c 0,-12.933436 10.47822,-23.41097 23.40922,-23.41097 l 118.60684,0 c 12.92747,0 23.40501,10.477534 23.40501,23.41097 0,12.927442 -10.47754,23.405001 -23.40501,23.405001 l -95.19765,0 0,95.19587 c 0,7.69466 -3.77891,14.89574 -10.10643,19.26632 l -121.52246,83.90367 -18.21557,409.7365 c -0.55721,12.56474 -10.91692,22.37034 -23.36275,22.37034" />
  </g>
</svg>
